<svg xmlns="http://www.w3.org/2000/svg" xmlns:xlink="http://www.w3.org/1999/xlink" version="1.1" id="Layer_1" style="enable-background:new 0 0 595.3 841.9;" xml:space="preserve" viewBox="169.19 35.1 242.73 240.96">
<style type="text/css">
	.st0{fill:#F38C6F;}
	.st1{opacity:0.54;fill:#6BCFF6;}
	.st2{fill:#6BCFF6;}
	.st3{fill:#5B92CD;}
	.st4{fill:#69C9D2;}
	.st5{fill:none;}
	.st6{font-family:'Washington';}
	.st7{font-size:48px;}
	.st8{opacity:0.54;fill:#6ACAD2;}
	.st9{fill:#6CCFF6;}
</style>
<g id="XMLID_46_">
	<path id="XMLID_30_" class="st0" d="M346.3,120.3c21.8,11.6,43.6,23.3,65.4,34.9c0.3-2.9,1.8-19.4-9.7-31.4   c-6.2-6.5-13.4-8.7-16.8-9.7c-13.4-4.1-25.2,0-29,1.4c-2.9,1-5.2,2.2-6.8,3"/>
	<path id="XMLID_32_" class="st0" d="M410.5,127c0-22.5,0-45,0-67.4c-3,1.5-13.9,7.4-18.7,20.3c-0.9,2.6-3.2,9-1.8,16.7   c1.5,8.5,6.8,14.8,12.8,22.1c1.8,2.2,3.4,3.9,4.5,5.1"/>
	<path id="XMLID_22_" class="st1" d="M282.7,275.7c3.7,0.2,6.6,0,7.4,0c0-39.3,0-78.6,0-117.9c-40.3-0.2-80.6-0.5-120.9-0.7   c0,1.5-0.1,5.7,0.5,10.9C175.3,221.3,231.2,273.6,282.7,275.7z"/>
	<path id="XMLID_24_" class="st2" d="M276.4,275.7"/>
	<path id="XMLID_26_" class="st3" d="M411.7,165.1c0,0,0-1.9,0-4.5c0-0.9,0-1.7,0-2.3c-39.3-0.1-78.5-0.3-117.8-0.4   c0,39.3,0.1,78.7,0.1,118c1.2,0.1,5.1,0.3,9.9,0C356.4,272.6,410,216.1,411.7,165.1z"/>
	<path id="XMLID_28_" class="st4" d="M169.5,146.9c0,0,0,2,0,4.6c0,1,0,1.9,0,2.5c40.2,0,80.4,0,120.6,0c0-39.6-0.1-79.2-0.1-118.8   c-1.1,0-2.4-0.1-4-0.1c0,0-3.2,0-6.5,0.2C225.8,38.5,171.1,95.6,169.5,146.9z"/>
</g>
<!--<rect id="XMLID_4_" x="190.8" y="315.8" class="st5" width="228.4" height="105.2"/>-->
<!--<text id="XMLID_150_" transform="matrix(1 0 0 1 190.7707 349.4574)"><tspan x="0" y="0" class="st0 st6 st7">S</tspan><tspan x="23.3" y="0" class="st8 st6 st7">queak</tspan><tspan x="143.7" y="0" class="st0 st6 st7">A</tspan><tspan x="169.3" y="0" class="st8 st6 st7">pp</tspan></text>
<path id="XMLID_109_" class="st9" d="M339,518.4c22.3,11.9,44.6,23.8,66.9,35.7c0.3-3,1.9-19.9-9.9-32.2c-6.4-6.6-13.7-8.9-17.1-10
	c-13.8-4.1-25.8,0-29.7,1.4c-3,1.1-5.3,2.2-6.9,3.1"/>
<path id="XMLID_103_" class="st9" d="M404.7,525.2c0-23,0-46,0-69c-3,1.5-14.3,7.6-19.1,20.8c-1,2.6-3.3,9.2-1.8,17.1
	c1.6,8.7,6.9,15.2,13.1,22.6c1.9,2.2,3.5,4,4.6,5.2"/>
<path id="XMLID_101_" class="st1" d="M273.9,677.5c3.8,0.2,6.7,0,7.6,0c0-40.2,0-80.4,0-120.7c-41.2-0.2-82.5-0.5-123.7-0.7
	c0,1.5-0.1,5.8,0.5,11.1C164,621.7,221.2,675.3,273.9,677.5z"/>
<path id="XMLID_97_" class="st3" d="M405.9,564.3c0,0,0-2,0-4.7c0-1,0-1.8,0-2.4c-40.2-0.2-80.3-0.3-120.5-0.5
	c0,40.2,0.1,80.5,0.1,120.7c1.3,0.1,5.2,0.3,10.2,0C349.3,674.3,404.1,616.4,405.9,564.3z"/>
<path id="XMLID_93_" class="st0" d="M158,545.6c0,0,0,2,0,4.7c0,1,0,1.9,0,2.5c41.1,0,82.3,0,123.4,0c0-40.5-0.1-81.1-0.1-121.6
	c-1.1,0-2.5-0.1-4.1-0.1c0,0-3.3,0-6.6,0.2C215.7,434.7,159.7,493.1,158,545.6z"/>
<rect id="XMLID_2_" x="176.4" y="743.8" class="st5" width="228.4" height="105.2"/>
<text id="XMLID_1_" transform="matrix(1 0 0 1 176.3876 777.5123)"><tspan x="0" y="0" class="st0 st6 st7">S</tspan><tspan x="23.3" y="0" class="st1 st6 st7">queak</tspan><tspan x="143.7" y="0" class="st0 st6 st7">A</tspan><tspan x="169.3" y="0" class="st1 st6 st7">pp</tspan></text>-->
</svg>